<?xml version="1.0" standalone="no"?>
<!DOCTYPE svg PUBLIC "-//W3C//DTD SVG 20010904//EN"
 "http://www.w3.org/TR/2001/REC-SVG-20010904/DTD/svg10.dtd">
<svg version="1.0" xmlns="http://www.w3.org/2000/svg"
 width="300.000000pt" height="300.000000pt" viewBox="0 0 300.000000 300.000000"
 preserveAspectRatio="xMidYMid meet">
<metadata>
Created by potrace 1.11, written by Peter Selinger 2001-2013
</metadata>
<g transform="translate(0.000000,300.000000) scale(0.100000,-0.100000)"
fill="#000000" stroke="none">
<path d="M0 1500 l0 -1500 1500 0 1500 0 0 1500 0 1500 -1500 0 -1500 0 0
-1500z m1401 669 c69 -49 106 -88 165 -171 62 -88 87 -109 239 -203 135 -84
245 -163 245 -176 0 -14 -27 -22 -53 -15 -12 3 -48 25 -80 49 -33 24 -109 66
-169 92 -61 27 -139 70 -173 96 -40 30 -75 49 -96 51 -28 2 -39 12 -65 51 -18
27 -41 55 -53 63 -20 14 -21 14 -17 -8 3 -13 5 -40 5 -61 1 -36 4 -39 55 -63
31 -14 58 -34 61 -44 4 -11 27 -34 52 -51 27 -19 41 -35 36 -40 -5 -5 -55 -12
-111 -16 -89 -5 -102 -4 -108 11 -3 9 1 27 10 40 15 24 15 25 -26 48 -35 20
-44 32 -61 81 -13 38 -23 55 -29 49 -5 -5 -25 -60 -43 -120 -45 -147 -70 -198
-155 -312 -54 -73 -76 -112 -92 -167 -27 -89 -43 -95 -35 -14 9 82 35 146 101
246 47 70 59 97 72 161 8 42 12 79 9 82 -3 3 -16 0 -30 -6 -29 -13 -43 -44
-111 -230 -96 -265 -239 -493 -372 -592 -57 -43 -301 -164 -310 -155 -9 9 32
46 103 92 246 160 282 195 373 371 90 174 90 170 33 225 -64 63 -91 72 -141
47 -52 -27 -88 -90 -122 -215 -40 -151 -64 -230 -72 -243 -14 -23 -28 -12 -24
18 3 16 2 30 -1 29 -3 0 -26 -27 -51 -59 -38 -49 -74 -80 -95 -80 -10 0 -4 24
9 39 42 47 156 278 156 315 0 56 -14 35 -175 -259 -111 -201 -148 -260 -188
-296 -66 -60 -64 -18 3 91 28 45 118 216 200 382 82 165 157 309 166 319 10
11 29 19 44 19 23 0 34 10 68 68 46 77 97 132 121 132 19 0 58 -39 87 -85 31
-51 106 -136 117 -132 6 2 22 39 36 83 33 99 73 158 155 223 48 38 70 65 91
108 27 60 95 138 130 153 38 16 72 10 116 -21z m277 -515 c44 -31 17 -104 -39
-104 -59 0 -79 63 -33 99 32 25 43 26 72 5z m-158 -64 l0 -40 -105 0 -105 0 0
-70 0 -70 85 0 85 0 0 -35 0 -35 -85 0 -85 0 0 -100 0 -100 -50 0 -50 0 0 245
0 245 155 0 155 0 0 -40z m889 -98 c44 -24 71 -74 71 -133 l0 -46 -67 -6 c-38
-4 -92 -7 -120 -7 -63 0 -68 -13 -24 -62 29 -33 31 -33 115 -32 l86 1 0 -32
c0 -28 -4 -33 -31 -39 -55 -11 -158 -7 -192 8 -39 16 -82 61 -96 99 -35 92 11
216 94 253 44 19 124 17 164 -4z m-727 -172 l3 -180 -46 0 -47 0 -4 173 c-3
114 -1 174 6 179 6 4 28 8 48 8 l37 0 3 -180z m205 48 l41 -133 36 114 c20 63
36 123 36 133 0 15 8 18 50 18 28 0 50 -3 50 -7 0 -5 -31 -84 -69 -178 l-69
-170 -50 -3 c-50 -3 -51 -2 -60 30 -5 18 -32 97 -61 176 -28 78 -51 144 -51
147 0 3 24 5 53 5 l53 0 41 -132z m914 82 c101 -28 113 -152 19 -209 l-29 -17
39 -18 c121 -53 112 -217 -16 -292 -61 -36 -114 -53 -185 -61 l-59 -6 0 35 c0
35 0 35 52 41 74 9 151 49 173 91 39 72 -11 132 -120 143 -56 6 -60 10 -49 51
5 16 14 22 35 22 76 0 142 58 121 106 -15 32 -49 44 -123 44 l-59 0 0 34 c0
24 5 36 18 39 33 9 147 7 183 -3z m-758 -432 c15 -46 27 -86 27 -90 0 -5 -11
-8 -24 -8 -18 0 -25 6 -28 23 -2 17 -11 23 -35 25 -26 3 -32 -1 -35 -20 -2
-15 -11 -24 -25 -26 -29 -4 -29 1 8 97 28 73 33 81 58 81 24 0 28 -7 54 -82z
m165 14 c22 -28 15 -78 -15 -102 -15 -12 -35 -19 -45 -17 -14 4 -18 -1 -18
-24 0 -22 -5 -29 -20 -29 -18 0 -20 7 -20 64 0 35 -3 77 -6 94 -6 30 -5 31 37
34 54 4 70 0 87 -20z m150 5 c16 -13 15 -78 -1 -101 -8 -11 -27 -19 -45 -20
-28 -1 -32 -5 -32 -28 0 -21 -5 -28 -20 -28 -18 0 -20 7 -20 79 0 44 -3 86 -6
95 -9 25 92 28 124 3z m131 7 c10 -8 -14 -24 -37 -24 l-27 0 33 -20 c42 -26
45 -66 5 -81 -33 -12 -73 -4 -73 16 0 10 11 15 33 15 30 1 31 1 12 15 -39 28
-46 37 -43 53 6 31 72 48 97 26z"/>
<path d="M2289 1439 c-25 -9 -58 -63 -47 -75 3 -3 39 -4 80 -2 l74 3 -8 32
c-6 22 -17 34 -40 42 -17 6 -31 11 -32 10 -1 0 -13 -5 -27 -10z"/>
<path d="M1977 1036 c-11 -27 -8 -36 8 -36 16 0 17 5 6 34 -7 18 -8 18 -14 2z"/>
<path d="M2130 985 c0 -28 4 -35 19 -35 10 0 22 7 25 16 10 26 -3 54 -25 54
-15 0 -19 -7 -19 -35z"/>
<path d="M2280 985 c0 -32 3 -36 23 -33 17 2 22 10 22 33 0 23 -5 31 -22 33
-20 3 -23 -1 -23 -33z"/>
</g>
</svg>
